<svg width="7" height="17" viewBox="0 0 7 17" fill="none" xmlns="http://www.w3.org/2000/svg">
<path d="M5.49988 0.5C5.10206 0.5 4.72053 0.658035 4.43922 0.93934C4.15792 1.22064 3.99988 1.60218 3.99988 2C3.99988 2.39782 4.15792 2.77936 4.43922 3.06066C4.72053 3.34196 5.10206 3.5 5.49988 3.5C5.89771 3.5 6.27924 3.34196 6.56054 3.06066C6.84185 2.77936 6.99988 2.39782 6.99988 2C6.99988 1.60218 6.84185 1.22064 6.56054 0.93934C6.27924 0.658035 5.89771 0.5 5.49988 0.5ZM5.13988 5.27C3.94988 5.37 0.699882 7.96 0.699882 7.96C0.499882 8.11 0.559883 8.1 0.719883 8.38C0.879883 8.65 0.859883 8.67 1.04988 8.54C1.24988 8.41 1.57988 8.2 2.12988 7.86C4.24988 6.5 2.46988 9.64 1.55988 14.93C1.19988 17.55 3.55988 16.2 4.16988 15.8C4.76988 15.41 6.37988 14.3 6.53988 14.19C6.75988 14.04 6.59988 13.92 6.42988 13.67C6.30988 13.5 6.18988 13.62 6.18988 13.62C5.53988 14.05 4.34988 14.95 4.18988 14.38C3.99988 13.81 5.21988 9.9 5.88988 7.21C5.99988 6.57 6.29988 5.17 5.13988 5.27Z" fill="black"/>
</svg>
